<mxfile host="app.diagrams.net" modified="2021-12-17T02:03:19.783Z" agent="5.0 (Windows)" etag="2hhsVdR5Rgn81-IOtsBT" version="15.9.6" type="github">
  <diagram id="R2lEEEUBdFMjLlhIrx00" name="Page-1">
    <mxGraphModel dx="1038" dy="564" grid="1" gridSize="10" guides="1" tooltips="1" connect="1" arrows="1" fold="1" page="1" pageScale="1" pageWidth="850" pageHeight="1100" math="0" shadow="0" extFonts="Permanent Marker^https://fonts.googleapis.com/css?family=Permanent+Marker">
      <root>
        <mxCell id="0" />
        <mxCell id="1" parent="0" />
        <mxCell id="UpK-_f2_bz4NrfLUHzfi-22" value="Veículos" style="whiteSpace=wrap;html=1;align=center;" vertex="1" parent="1">
          <mxGeometry x="303" y="90" width="100" height="40" as="geometry" />
        </mxCell>
        <mxCell id="UpK-_f2_bz4NrfLUHzfi-23" value="Funcionários" style="whiteSpace=wrap;html=1;align=center;" vertex="1" parent="1">
          <mxGeometry x="448" y="90" width="100" height="40" as="geometry" />
        </mxCell>
        <mxCell id="UpK-_f2_bz4NrfLUHzfi-24" value="&lt;div&gt;Fornecedores&lt;/div&gt;" style="whiteSpace=wrap;html=1;align=center;" vertex="1" parent="1">
          <mxGeometry x="583" y="90" width="100" height="40" as="geometry" />
        </mxCell>
        <mxCell id="UpK-_f2_bz4NrfLUHzfi-25" value="Terceiros" style="whiteSpace=wrap;html=1;align=center;" vertex="1" parent="1">
          <mxGeometry x="703" y="90" width="100" height="40" as="geometry" />
        </mxCell>
        <mxCell id="UpK-_f2_bz4NrfLUHzfi-26" value="Clientes" style="whiteSpace=wrap;html=1;align=center;" vertex="1" parent="1">
          <mxGeometry x="163" y="90" width="100" height="40" as="geometry" />
        </mxCell>
        <mxCell id="UpK-_f2_bz4NrfLUHzfi-27" value="Data_compra" style="ellipse;whiteSpace=wrap;html=1;align=center;" vertex="1" parent="1">
          <mxGeometry x="48" y="40" width="100" height="40" as="geometry" />
        </mxCell>
        <mxCell id="UpK-_f2_bz4NrfLUHzfi-28" value="Valor_pago" style="ellipse;whiteSpace=wrap;html=1;align=center;" vertex="1" parent="1">
          <mxGeometry x="48" y="140" width="100" height="40" as="geometry" />
        </mxCell>
        <mxCell id="UpK-_f2_bz4NrfLUHzfi-30" value="" style="endArrow=none;html=1;rounded=0;entryX=0.4;entryY=0;entryDx=0;entryDy=0;entryPerimeter=0;exitX=1;exitY=0.5;exitDx=0;exitDy=0;" edge="1" parent="1" source="UpK-_f2_bz4NrfLUHzfi-27" target="UpK-_f2_bz4NrfLUHzfi-26">
          <mxGeometry relative="1" as="geometry">
            <mxPoint x="203" y="40" as="sourcePoint" />
            <mxPoint x="363" y="40" as="targetPoint" />
          </mxGeometry>
        </mxCell>
        <mxCell id="UpK-_f2_bz4NrfLUHzfi-35" value="" style="endArrow=none;html=1;rounded=0;entryX=1;entryY=0.5;entryDx=0;entryDy=0;exitX=0.41;exitY=1;exitDx=0;exitDy=0;exitPerimeter=0;" edge="1" parent="1" source="UpK-_f2_bz4NrfLUHzfi-26" target="UpK-_f2_bz4NrfLUHzfi-28">
          <mxGeometry relative="1" as="geometry">
            <mxPoint x="212.5" y="130" as="sourcePoint" />
            <mxPoint x="212.5" y="180" as="targetPoint" />
          </mxGeometry>
        </mxCell>
      </root>
    </mxGraphModel>
  </diagram>
</mxfile>
